HIERARCHY
ROOT Hips
{
	OFFSET 0.000000 100.481300 0.000000
	CHANNELS 6 Xposition Yposition Zposition Xrotation Yrotation Zrotation 
	JOINT Spine
	{
		OFFSET -0.279200 12.230698 -2.892100
		CHANNELS 3 Xrotation Yrotation Zrotation
		JOINT Spine1
		{
			OFFSET -0.232667 10.192268 -1.242267
			CHANNELS 3 Xrotation Yrotation Zrotation
			JOINT Spine1_split
			{
				OFFSET -0.232667 10.192268 -1.242267
				CHANNELS 3 Xrotation Yrotation Zrotation
				JOINT Spine2
				{
					OFFSET -0.232667 10.192268 -1.242267
					CHANNELS 3 Xrotation Yrotation Zrotation
					JOINT Neck
					{
						OFFSET -0.418800 17.814194 8.416900
						CHANNELS 3 Xrotation Yrotation Zrotation
						JOINT Head
						{
							OFFSET 0.000000 7.031097 3.806800
							CHANNELS 3 Xrotation Yrotation Zrotation
							JOINT HeadTop_End
							{
								OFFSET 0.000000 24.646606 12.978600
								CHANNELS 3 Xrotation Yrotation Zrotation
								End Site
								{
									OFFSET 0.000000 0.000000 0.000000
								}
							}
						}
					}
					JOINT LeftShoulder
					{
						OFFSET 8.476499 7.247704 -3.868750
						CHANNELS 3 Xrotation Yrotation Zrotation
						JOINT LeftShoulder_split
						{
							OFFSET 8.476499 7.247704 -3.868750
							CHANNELS 3 Xrotation Yrotation Zrotation
							JOINT LeftArm
							{
								OFFSET 9.308998 -2.777710 0.208600
								CHANNELS 3 Xrotation Yrotation Zrotation
								JOINT LeftForeArm
								{
									OFFSET 29.972298 0.000000 0.000000
									CHANNELS 3 Xrotation Yrotation Zrotation
									JOINT LeftHand
									{
										OFFSET 26.026505 0.000000 0.000000
										CHANNELS 3 Xrotation Yrotation Zrotation
										JOINT LeftHandThumb1
										{
											OFFSET 12.240501 -7.147949 9.207150
											CHANNELS 3 Xrotation Yrotation Zrotation
											JOINT LeftHandThumb2
											{
												OFFSET 4.138618 -2.389435 2.389433
												CHANNELS 3 Xrotation Yrotation Zrotation
												JOINT LeftHandThumb3
												{
													OFFSET 2.726913 -1.574387 1.574386
													CHANNELS 3 Xrotation Yrotation Zrotation
													JOINT LeftHandThumb4
													{
														OFFSET 3.941010 -2.275345 2.275342
														CHANNELS 3 Xrotation Yrotation Zrotation
														End Site
														{
															OFFSET 0.000000 0.000000 0.000000
														}
													}
												}
											}
										}
										JOINT LeftHandIndex1
										{
											OFFSET 24.424698 -1.985611 5.953459
											CHANNELS 3 Xrotation Yrotation Zrotation
											JOINT LeftHandIndex2
											{
												OFFSET 6.426697 0.000000 0.000000
												CHANNELS 3 Xrotation Yrotation Zrotation
												JOINT LeftHandIndex3
												{
													OFFSET 5.337898 0.000000 0.000000
													CHANNELS 3 Xrotation Yrotation Zrotation
													JOINT LeftHandIndex4
													{
														OFFSET 4.409401 0.000000 0.000000
														CHANNELS 3 Xrotation Yrotation Zrotation
														End Site
														{
															OFFSET 0.000000 0.000000 0.000000
														}
													}
												}
											}
										}
										JOINT LeftHandMiddle1
										{
											OFFSET 23.810104 0.000000 0.000000
											CHANNELS 3 Xrotation Yrotation Zrotation
											JOINT LeftHandMiddle2
											{
												OFFSET 7.176498 0.000000 0.000000
												CHANNELS 3 Xrotation Yrotation Zrotation
												JOINT LeftHandMiddle3
												{
													OFFSET 6.774902 0.000000 0.000000
													CHANNELS 3 Xrotation Yrotation Zrotation
													JOINT LeftHandMiddle4
													{
														OFFSET 5.403328 0.000000 0.000000
														CHANNELS 3 Xrotation Yrotation Zrotation
														End Site
														{
															OFFSET 0.000000 0.000000 0.000000
														}
													}
												}
											}
										}
										JOINT LeftHandRing1
										{
											OFFSET 22.908401 -0.839279 -6.020567
											CHANNELS 3 Xrotation Yrotation Zrotation
											JOINT LeftHandRing2
											{
												OFFSET 6.337502 0.000000 0.000000
												CHANNELS 3 Xrotation Yrotation Zrotation
												JOINT LeftHandRing3
												{
													OFFSET 5.779297 0.000000 0.000000
													CHANNELS 3 Xrotation Yrotation Zrotation
													JOINT LeftHandRing4
													{
														OFFSET 4.965698 0.000000 0.000000
														CHANNELS 3 Xrotation Yrotation Zrotation
														End Site
														{
															OFFSET 0.000000 0.000000 0.000000
														}
													}
												}
											}
										}
										JOINT LeftHandPinky1
										{
											OFFSET 20.037003 -1.530319 -10.950146
											CHANNELS 3 Xrotation Yrotation Zrotation
											JOINT LeftHandPinky2
											{
												OFFSET 5.254700 0.000000 0.000000
												CHANNELS 3 Xrotation Yrotation Zrotation
												JOINT LeftHandPinky3
												{
													OFFSET 4.810204 0.000000 0.000000
													CHANNELS 3 Xrotation Yrotation Zrotation
													JOINT LeftHandPinky4
													{
														OFFSET 3.647202 0.000000 0.000000
														CHANNELS 3 Xrotation Yrotation Zrotation
														End Site
														{
															OFFSET 0.000000 0.000000 0.000000
														}
													}
												}
											}
										}
									}
								}
							}
						}
					}
					JOINT RightShoulder
					{
						OFFSET -7.570500 7.247704 -3.868750
						CHANNELS 3 Xrotation Yrotation Zrotation
						JOINT RightShoulder_split
						{
							OFFSET -7.570500 7.247704 -3.868750
							CHANNELS 3 Xrotation Yrotation Zrotation
							JOINT RightArm
							{
								OFFSET -9.308998 -2.777710 0.208500
								CHANNELS 3 Xrotation Yrotation Zrotation
								JOINT RightForeArm
								{
									OFFSET -29.972300 0.000000 0.000000
									CHANNELS 3 Xrotation Yrotation Zrotation
									JOINT RightHand
									{
										OFFSET -26.026505 0.000000 0.000000
										CHANNELS 3 Xrotation Yrotation Zrotation
										JOINT RightHandThumb1
										{
											OFFSET -12.240601 -7.148026 9.207092
											CHANNELS 3 Xrotation Yrotation Zrotation
											JOINT RightHandThumb2
											{
												OFFSET -4.138618 -2.389435 2.389433
												CHANNELS 3 Xrotation Yrotation Zrotation
												JOINT RightHandThumb3
												{
													OFFSET -2.726974 -1.574417 1.574421
													CHANNELS 3 Xrotation Yrotation Zrotation
													JOINT RightHandThumb4
													{
														OFFSET -3.941010 -2.275345 2.275343
														CHANNELS 3 Xrotation Yrotation Zrotation
														End Site
														{
															OFFSET 0.000000 0.000000 0.000000
														}
													}
												}
											}
										}
										JOINT RightHandIndex1
										{
											OFFSET -24.424698 -1.985657 5.953444
											CHANNELS 3 Xrotation Yrotation Zrotation
											JOINT RightHandIndex2
											{
												OFFSET -6.426697 0.000000 0.000000
												CHANNELS 3 Xrotation Yrotation Zrotation
												JOINT RightHandIndex3
												{
													OFFSET -5.337898 0.000000 0.000000
													CHANNELS 3 Xrotation Yrotation Zrotation
													JOINT RightHandIndex4
													{
														OFFSET -4.409401 0.000000 0.000000
														CHANNELS 3 Xrotation Yrotation Zrotation
														End Site
														{
															OFFSET 0.000000 0.000000 0.000000
														}
													}
												}
											}
										}
										JOINT RightHandMiddle1
										{
											OFFSET -23.810097 0.000000 0.000000
											CHANNELS 3 Xrotation Yrotation Zrotation
											JOINT RightHandMiddle2
											{
												OFFSET -7.176498 0.000000 0.000000
												CHANNELS 3 Xrotation Yrotation Zrotation
												JOINT RightHandMiddle3
												{
													OFFSET -6.774902 0.000000 0.000000
													CHANNELS 3 Xrotation Yrotation Zrotation
													JOINT RightHandMiddle4
													{
														OFFSET -5.403328 0.000000 0.000000
														CHANNELS 3 Xrotation Yrotation Zrotation
														End Site
														{
															OFFSET 0.000000 0.000000 0.000000
														}
													}
												}
											}
										}
										JOINT RightHandRing1
										{
											OFFSET -22.908302 -0.839325 -6.020576
											CHANNELS 3 Xrotation Yrotation Zrotation
											JOINT RightHandRing2
											{
												OFFSET -6.337502 0.000000 0.000000
												CHANNELS 3 Xrotation Yrotation Zrotation
												JOINT RightHandRing3
												{
													OFFSET -5.779297 0.000000 0.000000
													CHANNELS 3 Xrotation Yrotation Zrotation
													JOINT RightHandRing4
													{
														OFFSET -4.965698 0.000000 0.000000
														CHANNELS 3 Xrotation Yrotation Zrotation
														End Site
														{
															OFFSET 0.000000 0.000000 0.000000
														}
													}
												}
											}
										}
										JOINT RightHandPinky1
										{
											OFFSET -20.037003 -1.530334 -10.950259
											CHANNELS 3 Xrotation Yrotation Zrotation
											JOINT RightHandPinky2
											{
												OFFSET -5.254700 0.000000 0.000000
												CHANNELS 3 Xrotation Yrotation Zrotation
												JOINT RightHandPinky3
												{
													OFFSET -4.810204 0.000000 0.000000
													CHANNELS 3 Xrotation Yrotation Zrotation
													JOINT RightHandPinky4
													{
														OFFSET -3.647202 0.000000 0.000000
														CHANNELS 3 Xrotation Yrotation Zrotation
														End Site
														{
															OFFSET 0.000000 0.000000 0.000000
														}
													}
												}
											}
										}
									}
								}
							}
						}
					}
				}
			}
		}
	}
	JOINT LeftUpLeg
	{
		OFFSET 15.427100 -6.655098 0.678600
		CHANNELS 3 Xrotation Yrotation Zrotation
		JOINT LeftLeg
		{
			OFFSET 4.081073 -39.591068 13.024000
			CHANNELS 3 Xrotation Yrotation Zrotation
			JOINT LeftFoot
			{
				OFFSET -4.081074 -37.707932 -15.979700
				CHANNELS 3 Xrotation Yrotation Zrotation
				JOINT LeftToeBase
				{
					OFFSET 5.346399 -15.068900 20.645000
					CHANNELS 3 Xrotation Yrotation Zrotation
					JOINT LeftToe_End
					{
						OFFSET 2.754700 0.931300 11.300900
						CHANNELS 3 Xrotation Yrotation Zrotation
						End Site
						{
							OFFSET 0.000000 0.000000 0.000000
						}
					}
				}
			}
		}
	}
	JOINT RightUpLeg
	{
		OFFSET -15.569500 -6.655098 0.678600
		CHANNELS 3 Xrotation Yrotation Zrotation
		JOINT RightLeg
		{
			OFFSET -4.081825 -39.591045 13.023800
			CHANNELS 3 Xrotation Yrotation Zrotation
			JOINT RightFoot
			{
				OFFSET 4.081824 -37.707954 -15.979600
				CHANNELS 3 Xrotation Yrotation Zrotation
				JOINT RightToeBase
				{
					OFFSET -5.346400 -15.068900 20.645000
					CHANNELS 3 Xrotation Yrotation Zrotation
					JOINT RightToe_End
					{
						OFFSET -2.754700 0.931300 11.300900
						CHANNELS 3 Xrotation Yrotation Zrotation
						End Site
						{
							OFFSET 0.000000 0.000000 0.000000
						}
					}
				}
			}
		}
	}
}
MOTION
Frames: 4
Frame Time: 0.016667
1.211240 85.352959 -0.730316 -6.107847 -43.249014 -4.102745 5.829633 4.865985 -1.194341 11.836539 9.037612 -3.083968 0.000000 0.000000 0.000000 11.836542 9.037612 -3.083969 -4.303059 -1.272943 0.206308 -6.271928 20.437794 -0.377164 -0.000001 -0.000000 0.000000 1.392466 -0.696061 -7.877843 0.000000 0.000000 0.000000 -14.260086 2.394338 -63.277106 9.865055 -47.524938 5.927911 16.172836 0.915179 18.795415 9.163606 4.814094 -5.499034 -0.335355 0.032543 0.783679 -0.000002 0.000005 0.000006 0.000001 -0.000000 0.000001 -0.902015 -6.980946 -3.808413 0.033406 0.804244 -16.418976 0.000001 -0.000001 -0.000001 0.000002 0.000000 0.000001 1.947850 9.683081 -14.539804 -0.456432 -1.565431 -21.881023 0.000002 0.000013 0.000013 0.000004 0.000000 0.000001 2.605857 14.896825 -31.345258 -0.576870 -2.712393 -32.011543 0.000002 0.000014 0.000010 0.000002 -0.000000 0.000001 4.170568 18.495030 -34.987316 -0.706798 -5.788625 -39.372946 -0.000002 0.000004 0.000007 -0.000001 -0.000003 0.000001 1.410922 9.461496 9.792746 0.000000 0.000000 0.000000 1.220040 -24.270686 60.532914 -6.660711 41.858408 8.043849 6.225249 12.322332 11.673341 -8.895836 -4.903144 -0.383726 7.904836 -19.192468 -2.856844 0.000001 0.000001 -0.000011 -0.000001 -0.000000 -0.000002 -1.085498 -1.215491 4.525230 0.142128 -1.115548 16.942621 -0.000001 0.000002 0.000001 -0.000001 0.000000 -0.000000 -0.663636 -2.903895 12.731575 -0.660568 1.813463 30.579003 0.000004 0.000006 -0.000013 -0.000001 -0.000001 0.000001 2.423623 -7.404559 21.763261 -0.989711 3.764319 37.431158 -0.000000 -0.000002 -0.000002 -0.000000 -0.000001 -0.000000 3.481028 -10.055072 24.322731 -1.458320 7.872018 41.091965 -0.000000 -0.000000 0.000003 -0.000001 -0.000001 0.000001 -29.877672 5.210741 13.319295 32.838054 -12.881502 0.309433 -0.267947 0.093050 -8.727585 -2.319088 -3.216978 0.802956 -0.000000 0.000001 0.000000 1.358175 -13.669766 -18.978627 31.289704 -6.248386 0.666812 -23.451656 -6.999705 20.508102 -1.784983 -0.356733 0.333182 -0.000000 -0.000001 -0.000000 
1.197783 85.304321 -0.726789 -5.924542 -43.234647 -3.936322 5.780935 4.783794 -1.222784 11.734904 8.869605 -3.113896 0.000000 0.000000 0.000000 11.734904 8.869609 -3.113896 -4.165996 -0.932302 0.146254 -6.156642 20.430134 -0.327629 -0.000001 0.000000 -0.000000 1.386618 -0.844137 -7.964508 0.000000 0.000000 0.000000 -14.201893 2.560086 -62.985354 9.704274 -47.394461 5.847727 16.129186 0.756311 18.624089 8.640761 4.433203 -5.561612 -0.408216 0.793602 0.350491 0.000004 0.000005 0.000008 0.000000 -0.000002 0.000003 -1.041387 -6.906973 -4.872306 0.025670 0.590429 -17.734649 -0.000003 0.000000 -0.000001 -0.000001 -0.000002 0.000003 2.035067 9.279533 -16.022060 -0.473442 -1.804215 -24.052863 0.000003 0.000011 0.000012 0.000001 -0.000000 -0.000001 2.690495 14.538186 -32.911909 -0.496780 -2.772646 -33.741278 0.000001 0.000012 0.000007 -0.000002 0.000000 -0.000000 4.266842 18.108539 -37.030294 -0.686427 -5.727438 -41.165577 0.000003 0.000003 0.000004 -0.000000 -0.000001 0.000001 1.382081 9.291158 9.911530 0.000000 0.000000 0.000000 1.351739 -24.130076 60.409813 -6.095257 41.947194 7.777808 6.458486 12.305879 11.387808 -8.420288 -4.538852 0.140655 7.828482 -18.508793 -2.441040 0.000003 0.000001 -0.000012 -0.000002 0.000001 -0.000001 -1.150895 -0.748954 3.855729 0.139050 -1.114650 16.972347 -0.000001 0.000001 0.000001 0.000000 -0.000001 0.000000 -0.656022 -2.941665 12.234560 -0.660076 1.806536 30.514014 0.000005 0.000005 -0.000014 -0.000001 0.000000 0.000001 2.492893 -7.589655 21.295990 -0.992148 3.759894 37.371165 -0.000001 -0.000001 -0.000000 0.000000 -0.000002 0.000001 3.629653 -10.398260 23.891187 -1.459799 7.869065 41.061868 -0.000001 -0.000001 0.000004 -0.000000 -0.000002 -0.000001 -30.050090 5.144850 13.270131 32.929708 -12.813744 0.323706 -0.304148 0.095744 -8.771618 -2.316071 -3.236189 0.830653 0.000000 -0.000001 0.000000 1.165925 -13.588265 -19.026163 31.548039 -6.560063 0.640468 -23.503553 -7.068049 20.577132 -1.823588 -0.092409 0.544198 0.000000 0.000001 0.000000 
1.188853 85.265015 -0.720814 -5.686013 -43.164262 -3.724478 5.730485 4.699584 -1.253428 11.629818 8.696615 -3.147944 0.000000 0.000000 0.000000 11.629817 8.696627 -3.147947 -4.189976 -0.576359 0.043485 -6.017093 20.421166 -0.295643 0.000001 0.000000 -0.000000 1.380125 -0.996769 -8.053120 0.000000 0.000000 0.000000 -14.173305 2.709393 -62.680912 9.587356 -47.246672 5.801171 16.163774 0.571970 18.440123 8.124636 4.043967 -5.653100 -0.446823 1.595456 -0.110214 -0.000001 0.000006 0.000006 0.000000 0.000001 0.000002 -1.182650 -6.814267 -6.019487 0.012802 0.363564 -19.154347 -0.000001 0.000001 -0.000001 -0.000002 -0.000001 -0.000001 2.116428 8.859743 -17.622219 -0.502087 -2.058233 -26.396209 0.000002 0.000010 0.000012 0.000001 -0.000001 -0.000001 2.764103 14.158159 -34.618243 -0.416500 -2.836983 -35.640064 0.000009 0.000013 0.000008 0.000005 0.000000 0.000000 4.332958 17.683389 -39.232531 -0.662772 -5.659994 -43.158760 0.000002 0.000003 0.000006 0.000001 -0.000000 0.000001 1.353089 9.120821 10.030862 0.000000 0.000000 0.000000 1.496271 -24.000609 60.284937 -5.499480 42.033121 7.478086 6.779201 12.246899 11.024426 -7.858780 -4.169038 0.765171 7.781554 -17.752246 -1.975142 0.000001 0.000002 -0.000014 -0.000002 -0.000000 -0.000001 -1.206879 -0.257589 3.105319 0.136259 -1.127646 16.886253 -0.000001 0.000003 0.000001 0.000000 0.000002 0.000000 -0.647822 -2.986975 11.671373 -0.658982 1.789971 30.358022 0.000006 0.000006 -0.000014 0.000000 -0.000000 0.000001 2.561820 -7.792029 20.772974 -0.998022 3.749310 37.227154 -0.000002 -0.000001 -0.000003 -0.000001 -0.000001 0.000002 3.778054 -10.770703 23.398807 -1.463336 7.861976 40.989666 0.000000 -0.000003 0.000001 -0.000000 0.000000 -0.000001 -30.269971 5.069618 13.180914 33.003037 -12.750099 0.344368 -0.314580 0.090044 -8.808718 -2.306643 -3.273455 0.881120 0.000000 0.000001 0.000000 0.974336 -13.497707 -19.062346 31.798823 -6.950980 0.606311 -23.547644 -7.152081 20.669657 -1.879042 0.180762 0.762058 -0.000000 -0.000001 -0.000000 
1.184430 85.233017 -0.709737 -5.395866 -43.040464 -3.481304 5.679080 4.614228 -1.280633 11.522930 8.520903 -3.178272 0.000000 0.000000 0.000000 11.522929 8.520897 -3.178269 -4.372948 -0.187674 -0.099256 -5.842717 20.412140 -0.274204 -0.000000 -0.000000 -0.000000 1.373125 -1.153258 -8.144308 0.000000 0.000000 0.000000 -14.167243 2.845064 -62.375767 9.516515 -47.090377 5.789292 16.272649 0.371210 18.260299 7.615069 3.647144 -5.772857 -0.452409 2.437062 -0.597098 -0.000002 0.000006 0.000001 0.000001 0.000002 -0.000001 -1.323890 -6.703284 -7.245796 -0.006508 0.124176 -20.673156 -0.000005 -0.000001 0.000000 -0.000002 -0.000002 0.000001 2.188762 8.425091 -19.334474 -0.544318 -2.326903 -28.903103 -0.000001 0.000011 0.000011 0.000004 0.000002 -0.000001 2.823271 13.758666 -36.457077 -0.336091 -2.906758 -37.699905 0.000005 0.000011 0.000003 0.000001 0.000001 -0.000000 4.364281 17.223784 -41.585347 -0.634317 -5.587152 -45.342832 0.000004 0.000003 0.000003 0.000002 -0.000003 -0.000003 1.325403 8.962435 10.136582 0.000000 0.000000 0.000000 1.656984 -23.878775 60.164985 -4.869279 42.117716 7.144421 7.188144 12.148863 10.581811 -7.214456 -3.789441 1.485809 7.762103 -16.923529 -1.462398 0.000002 0.000001 -0.000012 -0.000000 -0.000000 -0.000001 -1.250352 0.258052 2.275966 0.133628 -1.154120 16.687221 -0.000001 0.000002 0.000000 -0.000001 0.000001 -0.000000 -0.639259 -3.039717 11.043628 -0.657395 1.764009 30.113379 0.000006 0.000004 -0.000014 -0.000001 -0.000001 0.000001 2.629485 -8.011485 20.195464 -1.007285 3.732824 37.001249 -0.000002 0.000000 -0.000001 0.000000 0.000002 -0.000001 3.924441 -11.172135 22.846803 -1.468905 7.850885 40.876380 0.000002 0.000001 0.000004 0.000001 0.000002 -0.000001 -30.539043 4.975924 13.061939 33.058922 -12.734502 0.365532 -0.293718 0.083224 -8.836634 -2.300332 -3.297134 0.942821 0.000000 0.000001 0.000000 0.788614 -13.398828 -19.077215 32.037610 -7.418000 0.565340 -23.580327 -7.251363 20.787925 -1.947735 0.463350 0.991959 0.000000 -0.000000 -0.000000 
